<?xml version="1.0" standalone="no"?>
<!DOCTYPE svg PUBLIC "-//W3C//DTD SVG 20010904//EN"
 "http://www.w3.org/TR/2001/REC-SVG-20010904/DTD/svg10.dtd">
<svg version="1.0" xmlns="http://www.w3.org/2000/svg"
 width="45.000000pt" height="45.000000pt" viewBox="0 0 45.000000 45.000000"
 preserveAspectRatio="xMidYMid meet">
<metadata>
Created by potrace 1.15, written by Peter Selinger 2001-2017
</metadata>
<g transform="translate(0.000000,45.000000) scale(0.100000,-0.100000)"
fill="#000000" stroke="none">
<path d="M55 440 l-50 -5 0 -215 0 -215 220 0 220 0 3 217 2 217 -172 3 c-95
2 -195 1 -223 -2z m230 -50 c3 -5 19 -10 36 -10 23 0 29 -4 29 -21 0 -16 5
-20 19 -16 15 4 20 -2 26 -32 14 -83 17 -133 6 -144 -6 -6 -11 -24 -11 -40 0
-24 -3 -27 -20 -22 -16 5 -20 2 -20 -14 0 -14 -6 -21 -18 -21 -10 0 -27 -7
-38 -15 -25 -19 -84 -19 -120 0 -16 8 -37 15 -46 15 -11 0 -18 8 -18 20 0 14
-6 20 -17 18 -13 -2 -17 3 -15 15 2 10 -4 29 -12 42 -18 28 -21 102 -5 107 7
2 12 18 13 36 1 23 6 32 19 32 10 0 17 8 17 20 0 16 7 20 35 20 19 0 35 5 35
10 0 6 22 10 49 10 28 0 53 -4 56 -10z"/>
<path d="M170 326 c0 -4 5 -16 11 -27 10 -20 10 -20 -16 -3 -30 19 -44 12 -24
-13 12 -15 12 -16 -3 -10 -10 3 -18 2 -18 -3 0 -6 4 -10 8 -10 5 0 17 -6 27
-14 18 -13 18 -14 -10 -10 -27 4 -28 3 -11 -8 10 -7 42 -32 70 -54 44 -35 55
-40 72 -31 17 9 18 9 5 -6 -11 -14 -11 -17 1 -17 8 0 19 5 26 12 14 14 16 42
2 33 -5 -3 -10 3 -10 14 0 11 -4 23 -10 26 -5 3 -10 28 -10 56 0 49 -17 68
-27 29 -7 -27 -11 -26 -50 12 -18 18 -33 28 -33 24z"/>
</g>
</svg>
