<?xml version="1.0" standalone="no"?>
<!DOCTYPE svg PUBLIC "-//W3C//DTD SVG 20010904//EN"
 "http://www.w3.org/TR/2001/REC-SVG-20010904/DTD/svg10.dtd">
<svg version="1.0" xmlns="http://www.w3.org/2000/svg"
 width="45.000000pt" height="45.000000pt" viewBox="0 0 45.000000 45.000000"
 preserveAspectRatio="xMidYMid meet">
<metadata>
Created by potrace 1.15, written by Peter Selinger 2001-2017
</metadata>
<g transform="translate(0.000000,45.000000) scale(0.100000,-0.100000)"
fill="#000000" stroke="none">
<path d="M2 228 l3 -223 220 0 220 0 3 223 2 222 -225 0 -225 0 2 -222z m292
167 c11 -8 28 -15 38 -15 11 0 18 -7 18 -19 0 -14 5 -18 20 -14 15 4 20 0 20
-16 0 -12 6 -34 14 -49 10 -20 11 -39 5 -72 -16 -88 -21 -100 -40 -100 -11 0
-19 -7 -19 -15 0 -8 -8 -15 -19 -15 -10 0 -24 -7 -31 -15 -16 -20 -108 -20
-134 0 -11 8 -28 15 -38 15 -10 0 -18 7 -18 15 0 8 -9 15 -20 15 -15 0 -20 7
-20 29 0 17 -5 33 -10 36 -13 8 -13 88 1 102 5 5 11 25 11 42 1 27 5 32 20 28
13 -4 18 0 18 14 0 14 7 19 25 19 13 0 30 7 37 15 17 19 97 19 122 0z"/>
<path d="M197 327 c-7 -19 17 -47 50 -57 24 -7 25 -8 6 -9 -13 -1 -23 -7 -23
-13 0 -7 -6 -2 -13 11 -18 36 -41 47 -70 34 -31 -15 -57 -81 -36 -94 8 -5 20
-2 30 7 15 13 17 13 23 -2 6 -15 8 -15 24 -2 37 32 45 29 14 -4 -53 -56 -27
-80 67 -62 26 5 31 11 31 35 0 16 -8 33 -19 41 -14 10 -17 18 -10 28 7 13 9
13 9 0 0 -23 45 -41 66 -26 14 11 15 16 4 37 -20 38 -52 69 -72 69 -10 0 -18
5 -18 10 0 15 -57 12 -63 -3z"/>
</g>
</svg>
