<?xml version="1.0" standalone="no"?>
<!DOCTYPE svg PUBLIC "-//W3C//DTD SVG 20010904//EN"
 "http://www.w3.org/TR/2001/REC-SVG-20010904/DTD/svg10.dtd">
<svg version="1.0" xmlns="http://www.w3.org/2000/svg"
 width="1100.000000pt" height="1050.000000pt" viewBox="0 0 1100.000000 1050.000000"
 preserveAspectRatio="xMidYMid meet">
<metadata>
Created by potrace 1.15, written by Peter Selinger 2001-2017
</metadata>
<g transform="translate(0.000000,1050.000000) scale(0.100000,-0.100000)"
fill="#000000" stroke="none">
<path d="M4520 10230 l-265 -5 3 -80 c2 -44 8 -84 13 -89 5 -6 2 -17 -8 -28
-14 -15 -33 -18 -130 -18 -63 0 -122 -4 -131 -9 -9 -5 -120 -12 -246 -15 -127
-4 -232 -9 -235 -11 -3 -3 -4 -49 -2 -103 3 -144 22 -135 -262 -133 -222 2
-237 1 -238 -16 0 -10 0 -57 1 -106 1 -73 -2 -92 -19 -116 -18 -25 -21 -44
-21 -133 0 -122 -6 -136 -47 -119 -19 7 -85 10 -201 9 -139 -2 -174 0 -181 11
-7 11 -13 6 -26 -20 -15 -27 -17 -50 -12 -126 8 -140 23 -132 -263 -136 l-235
-2 -3 -237 c-3 -277 12 -251 -147 -255 -89 -2 -310 -10 -342 -12 -10 -1 -13
-55 -13 -234 0 -168 -3 -236 -12 -245 -8 -8 -50 -12 -124 -12 l-112 0 -7 -237
c-4 -141 -11 -243 -18 -251 -7 -9 -40 -12 -120 -11 -81 2 -111 -1 -117 -11 -5
-7 -6 -54 -3 -105 8 -131 4 -133 -183 -110 -52 6 -54 -9 -54 -378 0 -183 -5
-621 -12 -973 -9 -514 -9 -787 1 -1370 8 -401 16 -799 20 -883 l6 -155 102 3
c66 2 109 -2 124 -10 13 -7 67 -12 128 -13 l106 -1 3 -203 c1 -116 -2 -210 -7
-220 -7 -14 -4 -25 15 -47 24 -28 26 -29 132 -29 l107 -1 1 -233 c1 -282 -9
-263 144 -260 58 1 111 -1 118 -6 8 -5 12 -41 12 -117 0 -84 4 -115 16 -135
14 -20 18 -22 28 -10 7 10 37 15 91 18 l80 3 0 -108 c1 -102 2 -109 28 -138
27 -31 27 -31 119 -29 51 1 99 2 106 1 14 -1 16 -37 2 -46 -6 -3 -10 -28 -10
-55 0 -47 -12 -71 -25 -50 -3 5 -31 10 -61 10 l-54 0 0 40 c0 39 -31 93 -43
73 -3 -4 -6 -44 -8 -88 l-4 -80 92 4 c73 3 101 0 130 -14 30 -15 54 -17 129
-12 66 4 96 2 103 -7 5 -6 12 -63 15 -126 3 -63 9 -169 13 -235 l8 -120 234
-3 c152 -1 239 -6 248 -13 9 -8 13 -43 13 -125 0 -87 3 -115 14 -121 8 -4 110
-6 228 -3 117 3 219 1 226 -4 8 -6 12 -41 12 -117 0 -105 1 -109 23 -113 12
-3 159 -7 327 -11 168 -3 440 -8 605 -11 165 -3 304 -10 309 -15 13 -12 7
-411 -7 -427 -8 -10 -8 -15 2 -21 36 -23 1460 -21 1488 1 7 6 9 15 5 22 -4 6
-9 96 -12 200 l-5 189 -205 -2 c-112 -1 -210 -7 -216 -12 -7 -6 -17 -2 -28 10
-11 13 -14 21 -7 26 6 3 110 5 231 4 151 -1 224 2 233 9 9 8 212 17 643 27
808 21 866 23 861 38 -3 8 -36 12 -105 12 -60 0 -105 4 -112 11 -7 7 -10 42
-8 90 l3 79 115 5 c63 3 122 9 130 14 8 6 60 10 115 10 l100 1 3 112 c4 153
-12 145 270 142 120 -1 223 0 229 4 6 4 8 40 5 100 -3 74 -1 100 12 125 12 23
16 59 16 146 0 73 4 117 11 122 9 5 253 5 419 0 l35 -1 1 102 c1 75 5 108 17
126 13 20 17 65 20 250 3 124 7 230 11 235 4 7 86 11 228 11 191 1 224 3 239
17 17 15 19 39 21 253 l3 236 110 5 c125 6 165 22 146 58 -16 31 -15 419 2
425 6 2 53 2 103 -1 139 -7 134 -18 134 271 0 172 3 237 13 249 10 12 25 14
87 8 41 -4 82 -11 91 -14 11 -5 19 -1 23 9 23 62 30 1806 8 2495 l-7 245 -80
-4 c-44 -1 -85 -7 -91 -12 -7 -6 -16 -3 -25 7 -14 16 -37 359 -43 630 -1 55
-5 105 -9 111 -5 8 -39 9 -105 6 -90 -5 -98 -4 -116 16 -17 19 -19 35 -17 125
3 131 1 134 -100 125 -41 -3 -81 -10 -90 -13 -28 -12 -41 41 -37 147 2 82 0
98 -16 116 -18 20 -20 40 -20 249 l-1 227 -100 3 c-55 2 -158 5 -228 7 -78 2
-134 8 -142 15 -12 10 -15 59 -17 249 l-3 236 -233 2 c-291 2 -274 -7 -271
143 2 71 -1 113 -10 129 -10 19 -15 21 -22 10 -13 -22 -409 -30 -427 -9 -11
11 -13 39 -9 112 7 137 10 135 -156 142 -72 3 -178 5 -233 5 -56 0 -104 3
-107 8 -3 4 -2 44 1 88 l7 80 80 -4 c44 -2 82 -7 83 -12 2 -5 9 -9 15 -9 15 0
38 35 30 44 -4 3 -51 6 -106 6 -85 0 -103 3 -129 21 -27 19 -39 21 -123 17
-51 -3 -100 -1 -110 4 -14 9 -16 24 -14 107 2 53 0 101 -4 107 -4 8 -86 14
-244 19 -131 4 -246 12 -256 17 -10 5 -122 12 -250 14 -127 3 -233 7 -236 10
-2 2 4 13 14 24 13 14 22 17 29 10 16 -16 175 -13 191 4 8 7 15 33 17 57 l3
44 70 3 c105 5 113 1 118 -56 l3 -47 2 46 c1 27 8 52 17 59 18 15 20 40 3 40
-7 0 -74 3 -148 6 -182 7 -1729 10 -2060 4z m1890 -2245 c0 -11 11 -15 40 -15
22 0 40 -4 40 -9 0 -20 -30 -38 -54 -34 l-26 5 0 -86 0 -87 33 6 c24 5 40 1
64 -17 29 -22 37 -23 120 -17 48 4 91 5 96 2 10 -6 9 -155 -2 -172 -6 -9 -14
-10 -27 -3 -11 5 -52 11 -93 13 -61 3 -76 1 -85 -13 -5 -9 -7 -20 -3 -24 3 -4
232 -9 507 -12 l500 -5 0 -257 0 -258 234 -7 234 -7 6 -117 c4 -64 10 -173 14
-243 4 -70 12 -131 17 -135 6 -4 107 -6 225 -3 168 4 217 3 226 -7 7 -9 9 -46
6 -108 -4 -83 -3 -95 12 -95 14 0 16 -25 16 -250 l0 -250 244 0 245 0 7 -47
c6 -42 4 -172 -12 -826 -2 -76 -6 -142 -10 -148 -4 -7 -84 -10 -228 -9 -121 1
-227 1 -233 1 -10 -1 -13 -33 -13 -124 0 -68 -4 -127 -10 -133 -5 -5 -11 -63
-12 -129 l-3 -120 -230 -1 -230 -2 -3 -116 c-2 -102 -5 -119 -23 -137 -18 -18
-20 -31 -18 -122 2 -56 0 -107 -4 -114 -5 -7 -34 -9 -92 -5 l-85 5 0 -117 0
-116 -138 0 c-106 0 -143 -3 -158 -15 -14 -11 -48 -14 -131 -15 -73 0 -114 -4
-119 -11 -4 -7 -7 -114 -8 -238 l-1 -226 -122 -3 c-71 -1 -123 -7 -123 -12 0
-6 -136 -10 -365 -10 l-365 0 0 -250 0 -250 -730 0 -730 0 0 250 0 250 -409 0
c-350 0 -410 2 -414 15 -5 11 -31 15 -118 17 l-112 3 2 200 c1 109 5 203 7
207 9 13 169 9 182 -4 10 -10 15 -10 22 2 22 34 11 38 -117 44 -71 3 -172 5
-225 5 -91 -1 -133 9 -149 34 -4 6 -92 9 -233 8 -181 -2 -226 0 -226 11 0 7
-2 72 -4 143 -2 72 -5 172 -5 223 -1 75 -4 92 -16 92 -13 0 -15 21 -15 129 0
72 -3 131 -7 133 -5 2 -105 1 -223 -2 -118 -3 -221 -1 -227 4 -9 6 -13 41 -13
112 0 86 -3 104 -15 104 -13 0 -15 22 -15 134 l0 134 -229 7 c-126 4 -233 10
-239 14 -15 9 -30 923 -16 989 l7 32 239 0 240 0 -6 23 c-7 30 -7 403 0 445 4
21 12 32 23 32 14 0 16 13 13 101 -2 57 0 105 6 111 12 12 398 11 422 -2 30
-16 38 9 44 140 4 69 9 174 12 235 3 60 10 116 16 123 9 10 59 13 237 11 l226
-2 3 246 2 246 258 5 c359 7 504 15 520 29 10 8 50 10 119 8 84 -2 104 0 101
11 -4 10 -27 12 -103 9 -74 -2 -99 0 -106 10 -14 22 -11 167 3 175 7 4 56 6
110 5 l98 -3 0 131 0 131 965 0 c851 0 965 -2 965 -15z m-3969 -1960 c-1 -110
-5 -203 -9 -206 -4 -4 -40 -9 -79 -12 -64 -5 -74 -4 -83 13 -11 21 -14 393 -3
404 4 4 45 5 92 4 l84 -3 -2 -200z"/>
<path d="M4720 6930 l0 -110 -370 0 -370 0 0 -285 0 -285 -240 0 -240 0 0
-870 0 -870 245 0 245 0 0 -235 0 -235 365 0 365 0 0 -250 0 -250 930 0 930 0
0 250 0 250 215 0 215 0 0 235 0 235 230 0 230 0 0 870 0 870 -250 0 -250 0 0
285 0 285 -195 0 -195 0 0 110 0 110 -930 0 -930 0 0 -110z"/>
</g>
</svg>
