<?xml version="1.0" standalone="no"?>
<!DOCTYPE svg PUBLIC "-//W3C//DTD SVG 20010904//EN"
 "http://www.w3.org/TR/2001/REC-SVG-20010904/DTD/svg10.dtd">
<svg version="1.0" xmlns="http://www.w3.org/2000/svg"
 width="48.000000pt" height="46.000000pt" viewBox="0 0 48.000000 46.000000"
 preserveAspectRatio="xMidYMid meet">
<metadata>
Created by potrace 1.15, written by Peter Selinger 2001-2017
</metadata>
<g transform="translate(0.000000,46.000000) scale(0.100000,-0.100000)"
fill="#000000" stroke="none">
<path d="M2 228 l3 -213 219 -3 c154 -2 222 1 227 9 8 14 12 380 3 402 -5 15
-29 17 -230 17 l-224 0 2 -212z m288 167 c7 -8 23 -15 36 -15 17 0 24 -6 24
-20 0 -13 7 -20 19 -20 19 0 20 -3 37 -89 4 -18 1 -58 -6 -87 -11 -46 -16 -53
-32 -48 -13 4 -18 0 -18 -15 0 -15 -6 -21 -24 -21 -13 0 -29 -7 -36 -15 -17
-20 -97 -20 -116 0 -9 8 -26 15 -40 15 -18 0 -24 5 -24 21 0 16 -5 20 -20 16
-17 -4 -20 0 -20 23 0 16 -5 32 -10 35 -13 8 -13 92 0 100 6 3 10 19 10 36 0
23 4 29 21 29 16 0 20 5 16 20 -4 17 0 20 29 20 22 0 37 6 40 15 4 10 21 15
54 15 30 0 52 -6 60 -15z"/>
<path d="M182 328 c-5 -7 -16 -31 -23 -53 -8 -22 -18 -43 -24 -47 -6 -5 -6
-11 2 -16 7 -4 14 -19 16 -32 3 -16 11 -26 25 -28 12 -2 22 -10 22 -18 0 -19
44 -18 60 1 7 8 19 15 26 15 9 0 14 12 14 33 0 18 5 38 12 45 16 16 12 71 -8
93 -20 22 -105 27 -122 7z"/>
</g>
</svg>
