<?xml version="1.0" standalone="no"?>
<!DOCTYPE svg PUBLIC "-//W3C//DTD SVG 20010904//EN"
 "http://www.w3.org/TR/2001/REC-SVG-20010904/DTD/svg10.dtd">
<svg version="1.0" xmlns="http://www.w3.org/2000/svg"
 width="46.000000pt" height="46.000000pt" viewBox="0 0 46.000000 46.000000"
 preserveAspectRatio="xMidYMid meet">
<metadata>
Created by potrace 1.15, written by Peter Selinger 2001-2017
</metadata>
<g transform="translate(0.000000,46.000000) scale(0.100000,-0.100000)"
fill="#000000" stroke="none">
<path d="M4 447 c-2 -7 -3 -105 -2 -217 l3 -205 220 0 220 0 3 218 2 217 -220
0 c-170 0 -222 -3 -226 -13z m286 -32 c7 -8 25 -15 40 -15 23 0 27 -4 23 -20
-4 -16 0 -20 18 -20 18 0 25 -6 27 -25 4 -35 5 -133 1 -178 -4 -34 -6 -37 -28
-32 -20 5 -23 3 -18 -14 4 -18 0 -21 -23 -21 -16 0 -32 -4 -35 -10 -3 -5 -30
-10 -60 -10 -30 0 -57 5 -60 10 -3 6 -20 10 -37 10 -26 0 -30 3 -25 21 5 17 2
20 -16 15 -20 -4 -22 -1 -23 31 0 20 -6 39 -12 41 -18 6 -15 79 4 107 9 14 14
32 10 40 -4 11 1 15 18 15 19 0 23 4 19 20 -4 16 0 20 19 20 13 0 33 7 44 15
25 19 98 19 114 0z"/>
<path d="M184 342 c-20 -3 -22 -9 -22 -75 0 -40 -1 -79 -3 -87 -3 -12 11 -15
86 -15 74 0 90 3 93 16 2 11 -11 21 -42 33 -47 18 -62 41 -51 76 5 14 2 20
-10 20 -9 0 -14 4 -11 9 9 13 -16 27 -40 23z"/>
</g>
</svg>
