<?xml version="1.0" standalone="no"?>
<!DOCTYPE svg PUBLIC "-//W3C//DTD SVG 20010904//EN"
 "http://www.w3.org/TR/2001/REC-SVG-20010904/DTD/svg10.dtd">
<svg version="1.0" xmlns="http://www.w3.org/2000/svg"
 width="2872.000000pt" height="2384.000000pt" viewBox="0 0 2872.000000 2384.000000"
 preserveAspectRatio="xMidYMid meet">
<metadata>
Created by potrace 1.15, written by Peter Selinger 2001-2017
</metadata>
<g transform="translate(0.000000,2384.000000) scale(0.100000,-0.100000)"
fill="#000000" stroke="none">
<path d="M7517 23739 c-65 -7 -100 -28 -135 -80 -20 -29 -23 -42 -17 -89 3
-30 9 -260 13 -510 5 -299 11 -464 19 -480 32 -71 35 -132 34 -645 l-2 -516
26 -82 c15 -45 32 -93 38 -107 9 -18 12 -175 13 -565 1 -381 6 -563 14 -620 9
-54 14 -235 16 -560 2 -264 4 -493 5 -510 2 -39 -13 -92 -42 -152 l-24 -48 0
-605 c0 -473 3 -617 13 -660 11 -42 15 -182 17 -580 l2 -525 -25 -75 c-13 -41
-30 -82 -37 -90 -29 -35 -58 -114 -58 -158 1 -26 6 -222 12 -437 12 -407 10
-489 -15 -536 -32 -62 -38 -63 -469 -58 -594 6 -618 6 -651 -11 -16 -8 -36
-19 -44 -26 -8 -6 -33 -17 -55 -24 -22 -7 -44 -16 -50 -20 -5 -4 -23 -11 -40
-14 -122 -26 -152 -29 -159 -17 -9 15 -746 16 -746 1 0 -5 -20 -10 -44 -10
-25 0 -48 5 -51 10 -3 6 -24 10 -45 10 -21 0 -42 4 -45 10 -3 5 -23 14 -43 19
-23 7 -59 32 -95 66 -31 30 -63 55 -71 55 -8 0 -16 7 -20 15 -3 8 -12 15 -21
15 -8 0 -14 3 -14 8 7 41 -26 43 -49 2 -9 -16 -28 -32 -42 -35 -14 -4 -149 -6
-300 -6 -151 1 -311 -3 -355 -8 -95 -11 -211 0 -234 23 -18 18 -19 65 -12 561
l4 290 29 27 c16 15 38 30 49 33 10 4 19 11 19 16 0 5 32 9 70 9 40 0 70 -4
70 -10 0 -5 11 -10 25 -10 14 0 25 -4 25 -10 0 -6 82 -10 225 -10 143 0 225 4
225 10 0 15 37 12 43 -4 3 -7 26 -17 52 -20 29 -5 50 -14 58 -27 6 -10 17 -19
24 -19 7 0 15 -11 19 -25 10 -41 84 -48 84 -8 0 10 14 45 30 77 37 72 37 96 4
135 -30 36 -60 39 -169 16 -52 -11 -139 -15 -332 -15 -145 0 -263 -4 -263 -8
0 -13 -126 -33 -157 -26 -15 4 -34 13 -41 21 -7 7 -24 13 -38 13 -13 0 -41 15
-61 34 -42 36 -91 61 -140 70 -56 10 -1036 7 -1078 -3 -37 -9 -54 -23 -107
-90 -22 -26 -23 -89 -3 -138 12 -28 15 -86 16 -277 0 -132 4 -293 7 -356 4
-63 3 -148 -2 -188 -12 -90 -41 -127 -115 -143 -27 -5 -198 -8 -421 -6 -361 3
-377 4 -438 26 -36 13 -73 21 -86 17 -13 -3 -47 -29 -75 -57 -41 -41 -51 -58
-53 -87 -1 -20 -2 -271 -2 -557 l-1 -520 -24 -48 c-25 -50 -38 -61 -111 -89
-41 -16 -92 -18 -567 -18 l-523 0 0 -1800 0 -1800 544 0 c426 0 550 -3 575
-13 17 -7 46 -33 64 -57 l32 -44 0 -426 c0 -234 -3 -468 -5 -520 -4 -72 -1
-102 10 -125 30 -59 23 -58 625 -59 590 -1 589 -1 648 -53 14 -12 46 -33 72
-48 40 -22 55 -25 94 -19 25 4 57 11 71 16 35 13 570 12 651 -1 37 -6 82 -8
100 -5 35 7 129 60 129 74 0 4 16 15 35 25 20 9 52 30 71 47 19 17 53 34 74
38 22 4 187 5 367 3 274 -3 347 -7 441 -24 63 -12 126 -18 140 -14 34 8 92 69
92 96 0 11 -11 64 -24 117 -23 90 -25 121 -30 438 -3 222 -1 355 5 379 7 23
31 59 63 91 87 89 59 87 775 79 339 -4 865 -8 1169 -10 619 -3 567 4 618 -77
l24 -38 0 -527 c0 -333 4 -543 11 -568 36 -140 39 -193 38 -734 l-2 -535 36
-32 c50 -46 106 -60 182 -44 66 14 761 27 852 15 58 -7 121 -50 142 -97 18
-39 17 -1023 0 -1064 -7 -16 -29 -45 -49 -65 -43 -43 -127 -64 -217 -54 -32 4
-193 8 -358 9 -208 1 -322 6 -372 16 -61 12 -79 12 -110 1 -45 -17 -89 -63
-97 -103 -3 -17 -6 -542 -7 -1167 0 -783 -4 -1152 -11 -1186 -7 -33 -12 -253
-13 -630 -1 -666 -1 -660 -74 -735 -59 -60 -101 -74 -201 -66 -41 3 -212 10
-380 15 -244 7 -314 13 -350 26 -52 19 -112 15 -140 -10 -38 -35 -45 -70 -32
-184 18 -156 15 -568 -3 -656 -19 -90 -19 -117 2 -153 33 -57 96 -76 173 -51
29 10 436 27 740 31 84 1 147 -11 184 -36 68 -44 110 -47 696 -44 305 2 852 3
1215 2 1325 -2 1753 -2 2420 3 717 5 689 6 862 -38 29 -8 70 -8 142 0 132 14
501 14 616 -1 115 -14 179 -12 213 6 15 8 41 20 59 26 39 15 133 124 133 155
0 13 -5 36 -10 51 -6 15 -15 55 -20 88 -12 79 -12 468 1 613 8 92 7 117 -4
135 -8 13 -18 37 -22 53 -3 17 -14 39 -24 50 -40 46 -43 84 -40 646 3 528 3
539 -17 566 -32 43 -96 55 -229 42 -62 -6 -278 -9 -495 -7 -383 3 -385 3 -417
26 -18 12 -43 37 -55 55 l-23 32 0 595 c0 573 1 597 20 640 19 43 20 67 20
565 0 286 4 534 8 550 5 18 22 40 45 55 l37 25 390 0 c283 0 418 -4 491 -14
l102 -14 53 27 c29 16 61 39 72 52 10 13 24 24 32 24 13 0 38 27 96 105 32 41
33 73 4 102 -23 22 -25 57 -29 458 -4 428 0 463 49 478 17 4 206 7 420 5 640
-5 613 -6 665 24 102 58 133 60 746 55 369 -3 573 -8 600 -15 27 -8 220 -12
580 -14 484 -2 543 -1 574 14 66 31 194 38 695 38 517 0 571 -4 660 -45 28
-13 64 -27 80 -31 17 -4 284 -8 595 -8 311 -1 576 -5 590 -9 14 -4 234 -7 490
-6 546 2 595 1 636 -12 68 -21 104 -102 87 -195 -5 -31 -11 -179 -12 -328 -1
-149 -6 -289 -11 -311 -5 -22 -14 -73 -21 -114 -11 -66 -11 -75 4 -86 9 -7 17
-17 17 -24 0 -6 4 -11 9 -11 5 0 12 -8 16 -19 3 -10 18 -32 33 -48 15 -15 38
-45 52 -66 14 -20 32 -39 41 -42 18 -6 29 -34 29 -72 0 -13 6 -23 13 -23 8 0
7 -4 -3 -10 -10 -6 -11 -10 -2 -10 8 0 12 -21 12 -70 0 -40 -4 -70 -10 -70 -6
0 -10 -103 -10 -287 -1 -159 -5 -322 -10 -363 -15 -120 15 -230 63 -230 12 0
37 44 37 67 0 7 7 13 15 13 20 0 21 76 1 95 -20 20 -28 146 -26 408 1 128 -1
239 -5 248 -3 10 -6 23 -4 30 1 8 1 40 0 72 -1 50 -3 57 -21 57 -26 0 -26 26
1 33 11 3 25 19 32 36 6 17 15 31 21 31 5 0 17 10 28 22 19 23 23 23 314 27
162 2 294 7 294 12 0 5 9 9 20 9 11 0 20 -4 20 -10 0 -16 37 -12 44 5 13 34
147 -3 187 -51 12 -14 13 -104 10 -529 -3 -516 -1 -556 32 -602 33 -45 42
-319 37 -1145 0 -66 -1 -69 -45 -115 l-45 -47 -403 3 c-227 1 -422 7 -447 12
-115 26 -137 24 -197 -17 -89 -61 -86 -42 -82 -544 6 -639 7 -613 -43 -717
l-42 -87 -1 -415 c-1 -229 -5 -435 -9 -458 -13 -67 1 -131 37 -168 18 -17 43
-36 57 -40 24 -8 493 -16 1773 -30 530 -6 550 -6 629 14 45 12 101 31 126 42
43 21 53 22 551 22 501 0 507 0 556 -22 110 -49 155 -52 705 -53 556 -1 580 1
670 54 65 39 133 44 515 37 227 -4 381 -11 417 -19 78 -17 124 -7 165 38 38
42 43 89 17 150 -14 31 -18 101 -24 417 -4 209 -7 382 -5 385 2 3 6 23 9 45 4
21 15 48 26 60 10 11 22 34 26 50 4 17 15 41 24 55 10 14 21 43 25 65 12 60 6
1061 -7 1115 -14 58 -20 3631 -7 3770 13 127 12 1124 0 1253 -6 57 -15 880
-22 1852 -12 1742 -11 1853 19 1899 29 46 32 91 32 631 0 303 -5 568 -10 590
-4 22 -11 596 -14 1276 -4 801 -10 1248 -17 1270 -7 23 -8 851 -3 2604 3 1414
7 3007 9 3540 1 748 5 984 15 1030 20 94 18 128 -14 173 -15 22 -41 46 -58 53
-23 10 -294 12 -1251 11 -672 -1 -1481 -2 -1797 -1 -316 0 -1115 0 -1775 0
-1607 0 -2219 1 -3725 6 -1030 4 -1291 2 -1360 -9 -121 -19 -1123 -19 -1266 0
-81 11 -229 12 -720 7 -734 -8 -3984 -12 -4839 -6 -484 3 -617 2 -690 -10 -69
-11 -211 -14 -615 -14 -461 0 -530 2 -565 16 -22 9 -67 20 -100 24 -73 9
-1036 13 -1118 4z m944 -4192 c-2 -280 1 -393 9 -403 9 -9 25 -12 55 -7 l43 5
11 -63 c6 -35 8 -81 5 -101 -6 -36 -8 -37 -60 -44 -30 -3 -54 -10 -54 -15 0
-5 -11 -9 -25 -9 -14 0 -25 5 -25 10 0 6 -103 10 -287 10 -337 0 -363 3 -363
36 0 15 -6 24 -15 24 -9 0 -15 9 -15 25 0 20 6 25 35 31 25 4 35 11 35 25 0
12 -7 19 -20 19 -13 0 -20 7 -20 20 0 24 -21 22 298 20 155 -1 238 2 246 9 7
6 35 10 62 9 l49 -3 3 373 2 372 -55 0 c-48 0 -55 2 -55 20 0 15 7 20 25 20
16 0 25 -6 25 -15 0 -8 9 -15 20 -15 11 0 20 6 20 14 0 16 17 26 39 23 11 -2
13 -69 12 -390z m-92 266 c-1 -38 -3 -60 -6 -50 -2 9 -13 17 -24 17 -10 0 -19
5 -19 11 0 7 -77 10 -247 8 -234 -2 -248 -1 -248 16 0 17 14 18 248 16 170 -2
247 1 247 8 0 6 9 11 20 11 11 0 20 7 20 15 0 8 2 15 5 15 3 0 4 -30 4 -67z
m1 -348 c0 -268 0 -275 -20 -275 -20 0 -20 7 -20 275 0 268 0 275 20 275 20 0
20 -7 20 -275z m-4425 -9506 c23 -6 152 -10 308 -9 182 1 267 -2 267 -9 0 -6
11 -11 25 -11 16 0 25 -6 25 -15 0 -8 5 -15 12 -15 6 0 20 -7 30 -17 21 -19
26 -121 7 -140 -9 -9 -11 -90 -10 -282 2 -268 2 -271 -18 -271 -16 0 -21 -6
-21 -25 0 -20 -5 -25 -25 -25 -16 0 -25 -6 -25 -15 0 -13 -37 -15 -274 -15
-151 0 -277 -4 -280 -9 -6 -10 -113 -7 -138 4 -10 4 -18 13 -18 21 0 8 -7 14
-15 14 -9 0 -15 9 -15 25 0 14 -5 25 -11 25 -7 0 -10 85 -8 263 1 181 -3 277
-11 310 -10 38 -10 60 -1 102 21 91 86 123 196 94z m22525 -7544 c0 -8 8 -15
18 -15 10 0 23 -5 29 -11 8 -8 87 -12 255 -13 l243 -1 0 -64 0 -64 -247 2
c-171 2 -248 -1 -248 -8 0 -6 -8 -11 -19 -11 -10 0 -21 -9 -24 -20 -4 -15 0
-20 14 -20 18 0 19 -11 21 -225 1 -124 2 -235 2 -247 1 -21 -3 -23 -38 -21
-44 3 -66 -10 -66 -38 0 -12 -7 -19 -20 -19 -15 0 -20 7 -20 25 0 18 -5 25
-20 25 -19 0 -20 7 -20 250 0 160 -4 250 -10 250 -5 0 -10 23 -10 50 0 28 -4
50 -10 50 -5 0 -10 19 -10 43 0 31 5 46 20 57 11 8 20 20 20 27 0 9 20 13 70
13 56 0 70 -3 70 -15z m-19250 -210 c0 -8 9 -15 20 -15 15 0 20 -7 20 -25 0
-20 5 -25 25 -25 l25 0 0 -225 0 -225 -25 0 c-18 0 -25 -5 -25 -20 0 -13 -7
-20 -20 -20 -11 0 -20 -4 -20 -10 0 -5 -11 -10 -25 -10 -14 0 -25 5 -25 10 0
6 -22 10 -50 10 -43 0 -50 3 -50 20 0 19 -7 20 -250 20 l-250 0 2 223 3 222
241 1 c133 1 246 4 253 8 6 4 11 16 11 27 0 12 7 19 20 19 13 0 20 -7 20 -20
0 -13 7 -20 19 -20 14 0 21 10 25 35 6 29 11 35 31 35 16 0 25 -6 25 -15z"/>
<path d="M26430 1960 c0 -213 1 -220 20 -220 19 0 20 7 20 220 0 213 -1 220
-20 220 -19 0 -20 -7 -20 -220z"/>
<path d="M2605 7839 c-11 -6 -25 -26 -32 -45 -22 -71 21 -115 95 -98 27 6 72
45 72 62 0 15 -83 92 -99 91 -9 0 -25 -5 -36 -10z"/>
</g>
</svg>
