<?xml version="1.0" standalone="no"?>
<!DOCTYPE svg PUBLIC "-//W3C//DTD SVG 20010904//EN"
 "http://www.w3.org/TR/2001/REC-SVG-20010904/DTD/svg10.dtd">
<svg version="1.0" xmlns="http://www.w3.org/2000/svg"
 width="332.000000pt" height="316.000000pt" viewBox="0 0 332.000000 316.000000"
 preserveAspectRatio="xMidYMid meet">
<metadata>
Created by potrace 1.14, written by Peter Selinger 2001-2017
</metadata>
<g transform="translate(0.000000,316.000000) scale(0.100000,-0.100000)"
fill="#000000" stroke="none">
<path d="M0 2255 l0 -905 95 0 95 0 0 -150 0 -150 95 0 95 0 0 -150 0 -150
100 0 100 0 0 -75 0 -75 100 0 100 0 0 -75 0 -75 95 0 c57 0 95 -4 95 -10 0
-6 30 -10 70 -10 l70 0 0 -65 0 -65 125 0 125 0 0 -75 0 -75 100 0 100 0 0
-75 0 -75 195 0 195 0 0 75 0 75 100 0 100 0 0 75 0 75 95 0 95 0 0 75 0 75
100 0 100 0 0 75 0 75 100 0 100 0 0 75 0 75 95 0 95 0 0 75 0 75 98 0 99 0 6
112 c4 62 7 152 7 201 l0 87 90 0 90 0 0 930 0 930 -1660 0 -1660 0 0 -905z
m1950 -225 l0 -680 100 0 100 0 0 -75 0 -75 95 0 95 0 0 -75 0 -75 -585 0
-585 0 0 75 0 75 95 0 95 0 0 75 0 75 100 0 100 0 0 530 0 530 -195 0 -195 0
0 75 0 75 195 0 195 0 0 75 0 75 195 0 195 0 0 -680z"/>
</g>
</svg>
