<?xml version="1.0" standalone="no"?>
<!DOCTYPE svg PUBLIC "-//W3C//DTD SVG 20010904//EN"
 "http://www.w3.org/TR/2001/REC-SVG-20010904/DTD/svg10.dtd">
<svg version="1.0" xmlns="http://www.w3.org/2000/svg"
 width="975.000000pt" height="1250.000000pt" viewBox="0 0 975.000000 1250.000000"
 preserveAspectRatio="xMidYMid meet">
<metadata>
Created by potrace 1.15, written by Peter Selinger 2001-2017
</metadata>
<g transform="translate(0.000000,1250.000000) scale(0.100000,-0.100000)"
fill="#000000" stroke="none">
<path d="M494 11979 c-5 -8 -7 -56 -5 -108 2 -67 0 -96 -9 -101 -7 -4 -56 -6
-109 -3 -134 7 -133 7 -130 -132 9 -347 7 -1997 -3 -2276 -7 -220 -7 -331 -1
-345 14 -25 17 -496 14 -1789 -2 -925 8 -1633 25 -1713 4 -18 9 -22 22 -17 34
15 164 21 177 9 10 -11 36 -501 35 -686 0 -39 4 -58 13 -59 6 -1 55 -1 107 1
124 3 126 1 122 -130 -5 -140 -6 -139 126 -142 l107 -3 2 -108 c1 -66 6 -114
13 -122 9 -11 42 -15 123 -17 l112 -3 8 -120 c4 -66 10 -173 13 -237 3 -81 9
-118 17 -119 7 0 53 0 104 1 132 2 132 3 135 -133 l3 -112 110 -3 c72 -2 112
-7 117 -15 4 -7 8 -59 8 -118 0 -68 4 -109 12 -117 8 -8 50 -12 122 -12 146 0
146 0 139 -129 -3 -54 -2 -101 3 -103 12 -8 151 6 161 15 4 4 2 17 -5 27 -7
11 -12 40 -12 65 l0 45 -43 0 c-30 0 -49 6 -61 19 -10 10 -14 21 -9 24 4 3 44
6 88 8 l80 4 -4 -101 c-2 -67 1 -104 8 -108 7 -5 11 -51 11 -128 0 -164 2
-167 140 -160 l100 5 0 -86 c0 -51 -4 -89 -11 -93 -7 -4 0 -17 17 -35 27 -29
29 -29 141 -29 83 0 113 -3 114 -12 1 -7 1 -56 0 -108 -2 -132 -1 -134 137
-134 l107 -1 1 -107 c1 -62 6 -113 12 -121 6 -7 13 -63 14 -128 l3 -114 107
-1 c71 -1 113 -6 123 -14 12 -10 15 -36 15 -126 l0 -114 112 0 c98 0 114 -2
133 -20 20 -19 22 -28 17 -122 l-5 -101 99 5 c93 4 101 3 131 -20 29 -21 43
-24 135 -25 l103 -2 -4 -80 c-2 -44 -7 -85 -12 -91 -6 -7 -1 -18 12 -30 19
-17 35 -19 131 -16 73 2 115 -1 124 -9 11 -9 14 -40 14 -125 0 -79 4 -115 13
-121 6 -4 55 -6 108 -4 63 1 108 -2 130 -11 43 -17 201 -16 253 1 26 9 68 12
126 9 48 -3 95 -1 104 4 13 7 16 27 16 113 0 57 3 110 6 119 5 13 25 16 119
16 96 0 114 2 119 17 4 9 6 60 5 112 0 53 2 104 6 114 10 24 45 31 134 24 42
-3 83 -2 90 3 11 6 13 28 8 102 -3 52 -1 101 3 109 7 11 32 13 111 11 62 -2
115 2 138 10 20 6 83 12 141 12 l105 1 1 108 c1 141 0 140 141 141 l108 1 5
120 c3 66 8 125 13 132 4 6 8 110 8 231 0 120 4 224 7 230 5 7 88 12 241 16
138 3 239 10 245 16 5 5 10 58 10 117 l1 108 111 1 c66 1 120 6 133 14 15 7
58 11 115 10 50 -1 96 -2 102 -1 8 1 14 74 19 239 4 141 11 242 18 250 8 10
39 12 118 11 60 -2 111 0 115 3 3 4 6 56 5 116 -2 137 -3 136 122 130 50 -3
98 -3 104 -1 10 3 13 36 13 119 0 133 -13 123 150 127 l105 2 9 243 9 242 111
0 c74 0 116 4 124 12 8 8 12 50 12 124 0 79 4 115 12 121 7 4 58 8 113 8 l100
0 3 115 c2 76 7 117 15 122 7 4 62 8 123 8 78 0 115 4 122 13 11 12 21 163 25
362 l2 100 80 -4 c44 -2 84 -5 88 -8 4 -3 1 -16 -7 -29 -9 -13 -16 -44 -16
-69 l0 -45 -43 0 c-40 0 -67 -13 -67 -32 0 -4 22 -8 50 -8 27 0 61 -5 75 -12
38 -17 43 -2 37 103 -4 74 -2 93 13 116 15 22 18 46 16 133 -3 144 -2 145 126
141 109 -3 120 3 107 54 -3 13 0 147 6 297 16 358 15 1615 -1 1634 -8 10 -40
14 -120 14 l-109 0 0 115 0 115 109 0 c75 0 112 4 119 13 9 10 14 434 16 1362
0 322 -14 1136 -20 1146 -13 22 -11 203 3 232 19 38 27 1217 9 1242 -10 14
-305 16 -3046 20 -1669 2 -3126 7 -3237 11 l-203 7 0 74 c0 41 5 83 11 94 8
17 7 23 -8 35 -25 19 -244 20 -276 1 -17 -11 -51 -12 -152 -6 -71 4 -281 8
-465 8 -184 1 -567 4 -851 7 -437 6 -517 5 -525 -7z m1986 -49 c5 -8 10 -48
10 -87 l0 -73 -117 0 c-83 1 -125 5 -143 15 -17 10 -20 14 -9 15 21 0 29 20
29 73 0 70 4 72 131 72 69 0 92 -3 99 -15z m-760 -51 c0 -26 7 -47 20 -61 11
-12 16 -26 12 -30 -11 -11 -229 -16 -245 -6 -8 5 -8 13 1 33 7 14 12 43 12 65
0 21 4 40 10 42 5 2 50 2 100 0 l90 -3 0 -40z m3780 -1387 c29 -14 51 -16 125
-11 58 3 94 2 101 -5 8 -8 9 -40 5 -101 -9 -132 -23 -125 262 -125 168 0 236
-3 245 -12 8 -8 12 -48 12 -114 0 -71 4 -105 13 -112 7 -6 62 -13 123 -14
l109 -3 5 -750 c3 -412 6 -751 8 -752 1 -2 54 -3 117 -3 111 0 115 -1 120 -22
3 -13 4 -120 3 -238 l-3 -215 -130 -8 c-71 -5 -178 -10 -238 -11 -59 -2 -110
-6 -113 -9 -4 -4 -6 -103 -5 -221 1 -122 -3 -225 -9 -240 -9 -26 -10 -26 -118
-26 -71 0 -112 -4 -120 -12 -16 -16 -16 -210 0 -226 8 -8 49 -12 120 -12 131
0 131 0 126 -135 -1 -52 1 -97 5 -102 5 -4 50 -6 102 -5 53 2 102 -1 113 -7
18 -10 20 -26 27 -251 l7 -240 109 0 c98 0 110 -2 132 -22 23 -23 24 -25 16
-143 -4 -66 -11 -392 -14 -724 -3 -332 -8 -608 -11 -613 -3 -4 -54 -8 -113 -8
-77 0 -112 -4 -119 -13 -6 -7 -13 -62 -14 -123 l-3 -109 -112 -3 c-75 -2 -115
-7 -122 -15 -6 -7 -12 -62 -13 -123 l-3 -109 -112 -3 c-75 -2 -115 -7 -122
-15 -6 -7 -12 -62 -13 -123 l-3 -109 -130 -5 c-71 -3 -632 -3 -1245 0 l-1115
5 -3 112 c-2 76 -7 114 -16 122 -8 7 -132 12 -372 13 l-359 3 0 370 0 370 112
3 c75 2 115 7 122 15 6 7 12 62 13 123 l3 109 245 0 245 0 3 -109 c1 -61 8
-116 14 -123 8 -11 171 -13 862 -12 468 1 914 4 991 8 l140 6 1 108 c0 67 4
111 12 119 7 7 51 12 114 12 l103 1 8 180 c9 209 0 796 -12 808 -5 5 -55 10
-112 10 l-104 2 -5 120 c-3 66 -9 127 -14 135 -6 8 -10 62 -10 120 l-1 105
-105 4 c-338 11 -838 11 -875 0 -46 -13 -227 -15 -247 -3 -7 5 -67 11 -133 14
l-120 5 -3 364 c-1 201 1 368 6 373 4 4 176 10 382 13 727 11 829 13 839 19 6
4 7 43 4 99 -8 125 -6 127 136 127 78 0 112 4 120 13 8 10 10 183 7 613 -3
329 -5 604 -5 611 -1 9 -35 13 -118 15 l-118 3 -5 115 -5 115 -145 6 c-188 8
-1252 8 -1440 0 l-145 -6 -10 -240 -10 -240 -243 -3 -242 -2 -11 27 c-7 17 -9
61 -6 110 8 109 4 112 -105 106 -48 -3 -95 0 -110 6 l-28 11 0 239 c0 284 -10
264 135 259 52 -1 97 1 102 5 4 5 6 50 5 102 -5 135 -5 135 127 135 77 0 112
4 119 13 6 7 13 62 14 123 l3 109 234 3 c149 1 239 6 247 13 9 8 14 46 16 122
l3 112 750 5 c413 3 797 6 855 8 84 2 113 -2 140 -16z m3633 -22 c44 0 57 -3
57 -15 0 -15 -22 -23 -80 -27 l-35 -3 0 -55 0 -55 48 -5 c71 -7 61 -24 -18
-31 -38 -4 -71 -5 -73 -4 -3 2 -5 179 -3 199 1 4 11 6 24 2 12 -3 48 -6 80 -6z
m-4813 -3598 l5 -47 50 0 50 0 5 47 c6 47 23 78 33 61 3 -4 6 -41 8 -82 l4
-74 -100 0 -100 0 4 74 c2 41 5 78 8 82 10 17 27 -14 33 -61z m396 -1230 c0
-42 1 -84 4 -92 4 -12 -11 -16 -88 -20 -52 -3 -96 -1 -99 4 -6 9 -4 176 2 186
2 3 43 4 93 2 l89 -3 -1 -77z"/>
<path d="M4566 5684 c-20 -20 -21 -97 -2 -113 9 -7 38 -11 73 -9 l58 3 3 61
c3 57 1 62 -20 68 -42 11 -96 6 -112 -10z"/>
<path d="M4537 683 c-4 -3 -7 -28 -7 -55 0 -27 -5 -58 -11 -70 -6 -11 -8 -22
-5 -25 3 -3 50 -6 103 -5 133 0 126 -1 117 20 -4 9 -10 42 -13 72 -7 67 -24
68 -31 3 -5 -48 -5 -48 -44 -51 -71 -6 -86 3 -86 51 0 43 -11 72 -23 60z"/>
</g>
</svg>
