<?xml version="1.0" standalone="no"?>
<!DOCTYPE svg PUBLIC "-//W3C//DTD SVG 20010904//EN"
 "http://www.w3.org/TR/2001/REC-SVG-20010904/DTD/svg10.dtd">
<svg version="1.0" xmlns="http://www.w3.org/2000/svg"
 width="46.000000pt" height="45.000000pt" viewBox="0 0 46.000000 45.000000"
 preserveAspectRatio="xMidYMid meet">
<metadata>
Created by potrace 1.15, written by Peter Selinger 2001-2017
</metadata>
<g transform="translate(0.000000,45.000000) scale(0.100000,-0.100000)"
fill="#000000" stroke="none">
<path d="M2 233 l3 -218 200 -3 c110 -1 210 0 223 3 22 5 22 6 22 220 l0 215
-225 0 -225 0 2 -217z m296 171 c18 -8 36 -12 42 -9 7 4 9 -2 4 -20 -6 -24 -5
-26 21 -19 21 5 26 4 23 -7 -3 -8 1 -29 8 -48 18 -44 18 -85 -2 -122 -8 -17
-13 -37 -10 -45 4 -10 -2 -14 -20 -14 -19 0 -25 -4 -20 -15 4 -11 -1 -15 -18
-15 -13 0 -29 -7 -36 -15 -17 -20 -103 -20 -120 0 -7 8 -25 15 -41 15 -21 0
-27 4 -23 15 4 10 0 15 -15 15 -17 0 -21 6 -21 29 0 17 -5 33 -10 36 -13 8
-13 102 0 110 6 3 10 20 10 36 0 26 3 29 21 24 19 -6 21 -4 16 14 -4 17 1 22
29 27 19 3 37 10 40 15 9 15 89 10 122 -7z"/>
<path d="M190 320 c-59 -8 -88 -25 -96 -55 -8 -33 -1 -41 50 -54 42 -10 62
-32 54 -59 -2 -5 2 -11 7 -11 6 -1 11 7 13 19 5 27 38 26 47 -2 7 -22 7 -21
14 7 4 20 17 35 44 49 92 48 -3 124 -133 106z"/>
</g>
</svg>
